<svg xmlns="http://www.w3.org/2000/svg" viewBox="0 0 100 100" width="50" height="50">
  <!-- Wireshark shark fin -->
  <path d="M 20 80 Q 30 60 40 50 Q 45 40 50 20 Q 55 40 60 50 Q 70 60 80 80 L 70 85 Q 60 70 50 60 Q 40 70 30 85 Z" 
        fill="#1679A7"/>
  <path d="M 50 20 Q 55 25 58 35 L 50 60 L 42 35 Q 45 25 50 20 Z" fill="#5DADE2"/>
  <circle cx="48" cy="35" r="2" fill="#FFFFFF"/>
  <path d="M 25 80 L 30 75 L 35 80 L 30 85 Z" fill="#14567A"/>
  <path d="M 65 80 L 70 75 L 75 80 L 70 85 Z" fill="#14567A"/>
</svg>
