<?xml version="1.0" encoding="UTF-8"?>
<svg version="1.1" xmlns="http://www.w3.org/2000/svg" width="48" height="48">
<path d="M0 0 C4.02870988 2.62741948 4.09280232 5.30012378 5.08984375 9.85546875 C5.88934504 12.93016774 7.01002585 15.39008415 8.5 18.1875 C10.40992969 21.79578034 11.48352534 24.76451605 11.875 28.875 C12.19174575 30.21237094 12.51770064 31.54788808 12.875 32.875 C6.59410112 37.5491573 6.59410112 37.5491573 1.875 36.875 C1.38 36.38 1.38 36.38 0.875 35.875 C-1.45317964 35.50739269 -3.7868385 35.17258419 -6.125 34.875 C-6.455 35.865 -6.785 36.855 -7.125 37.875 C-8.7506807 37.56606068 -10.37552748 37.2527305 -12 36.9375 C-12.90492187 36.76347656 -13.80984375 36.58945312 -14.7421875 36.41015625 C-17.125 35.875 -17.125 35.875 -19.125 34.875 C-18.8125 31.5 -18.8125 31.5 -18.125 27.875 C-17.135 27.215 -16.145 26.555 -15.125 25.875 C-13.97217648 23.79918557 -13.97217648 23.79918557 -13.0625 21.4375 C-11.90809353 18.62334448 -10.83022396 16.43283594 -9.125 13.875 C-8.95701205 12.04640987 -8.85937922 10.21069173 -8.8125 8.375 C-8.4134051 3.17988539 -8.4134051 3.17988539 -5.9375 0.5625 C-3.125 -0.125 -3.125 -0.125 0 0 Z " fill="#E5E8E7" transform="translate(27.125,5.125)"/>
<path d="M0 0 C4.02590404 2.62558959 4.09628844 5.29169514 5.078125 9.84765625 C6.13120356 13.84832235 7.99471443 17.13457048 10.08203125 20.68359375 C10.875 22.875 10.875 22.875 10.26171875 25.09765625 C8.58588607 27.24555447 7.52754092 27.52132788 4.875 27.875 C4.76542969 27.23433594 4.65585937 26.59367187 4.54296875 25.93359375 C3.55284093 20.53216476 2.37841896 15.7775288 -0.125 10.875 C-0.785 10.545 -1.445 10.215 -2.125 9.875 C-2.125 9.215 -2.125 8.555 -2.125 7.875 C-1.465 7.545 -0.805 7.215 -0.125 6.875 C-0.785 6.875 -1.445 6.875 -2.125 6.875 C-2.785 7.535 -3.445 8.195 -4.125 8.875 C-4.785 8.215 -5.445 7.555 -6.125 6.875 C-6.00125 8.669375 -6.00125 8.669375 -5.875 10.5 C-5.83529727 15.00228907 -7.58795302 17.19218987 -10.125 20.875 C-10.0540183 23.92721316 -9.69449426 25.25804788 -7.625 27.5 C-7.13 27.95375 -6.635 28.4075 -6.125 28.875 C-5.795 29.865 -5.465 30.855 -5.125 31.875 C-2.815 31.875 -0.505 31.875 1.875 31.875 C1.545 33.195 1.215 34.515 0.875 35.875 C-2.59 35.38 -2.59 35.38 -6.125 34.875 C-6.455 35.865 -6.785 36.855 -7.125 37.875 C-8.7506807 37.56606068 -10.37552748 37.2527305 -12 36.9375 C-12.90492187 36.76347656 -13.80984375 36.58945312 -14.7421875 36.41015625 C-17.125 35.875 -17.125 35.875 -19.125 34.875 C-18.8125 31.5 -18.8125 31.5 -18.125 27.875 C-17.135 27.215 -16.145 26.555 -15.125 25.875 C-13.97217648 23.79918557 -13.97217648 23.79918557 -13.0625 21.4375 C-11.90809353 18.62334448 -10.83022396 16.43283594 -9.125 13.875 C-8.95701205 12.04640987 -8.85937922 10.21069173 -8.8125 8.375 C-8.4134051 3.17988539 -8.4134051 3.17988539 -5.9375 0.5625 C-3.125 -0.125 -3.125 -0.125 0 0 Z " fill="#343E41" transform="translate(27.125,5.125)"/>
<path d="M0 0 C4.21708244 1.50610087 5.94467452 4.11771853 8 8 C7.60546875 10.69921875 7.60546875 10.69921875 7 13 C5.3743193 12.69106068 3.74947252 12.3777305 2.125 12.0625 C1.22007813 11.88847656 0.31515625 11.71445312 -0.6171875 11.53515625 C-3 11 -3 11 -5 10 C-4.50769231 3.47692308 -4.50769231 3.47692308 -1.9375 1.0625 C-0.9784375 0.5365625 -0.9784375 0.5365625 0 0 Z " fill="#FCC007" transform="translate(13,30)"/>
<path d="M0 0 C0.66 0 1.32 0 2 0 C2 0.66 2 1.32 2 2 C3.65 1.34 5.3 0.68 7 0 C10 3.36 10 3.36 10 6.0625 C8.54423377 8.88304707 6.85874343 9.70057117 4 11 C2.35 11 0.7 11 -1 11 C-0.67 7.37 -0.34 3.74 0 0 Z " fill="#FBBF08" transform="translate(30,31)"/>
<path d="M0 0 C0.99 0.33 1.98 0.66 3 1 C4.32 1 5.64 1 7 1 C6.67 1.66 6.34 2.32 6 3 C5.34 2.67 4.68 2.34 4 2 C4 2.66 4 3.32 4 4 C4.99 4.33 5.98 4.66 7 5 C5.75 6.5625 5.75 6.5625 4 8 C1.86254078 7.74853421 0.54074221 7.54074221 -1 6 C-1.125 3.5 -1.125 3.5 -1 1 C-0.67 0.67 -0.34 0.34 0 0 Z " fill="#C9A946" transform="translate(21,11)"/>
<path d="M0 0 C-0.33 1.32 -0.66 2.64 -1 4 C-3.31 3.67 -5.62 3.34 -8 3 C-8 2.34 -8 1.68 -8 1 C-2.25 0 -2.25 0 0 0 Z " fill="#29343A" transform="translate(29,37)"/>
</svg>
